<svg width="100" height="52" viewBox="0 0 100 52" fill="none" xmlns="http://www.w3.org/2000/svg">
<path fill-rule="evenodd" clip-rule="evenodd" d="M0 0H18.1129C31.1202 0 40.4058 12.3638 40.4058 24.021V27.7164C40.4058 39.3736 31.1202 51.7375 18.1129 51.7375H0V0ZM37.6192 24.021C37.6192 13.505 29.2167 2.77165 18.1129 2.77165H2.78661V48.9659H18.1129C29.2167 48.9659 37.6192 38.2326 37.6192 27.7165V24.021Z" fill="black"/>
<path d="M46.4435 0H49.2301V49.1968H64.092V51.9685H46.4435V0Z" fill="black"/>
<path d="M67.8074 0V51.7375H70.5941V27.3667L71.278 26.6864L96.0884 51.7375H100L73.2485 24.7265L98.1084 0H94.1675L70.5941 23.447V0H67.8074Z" fill="black"/>
</svg>
