<svg width="18" height="34" viewBox="0 0 18 34" fill="none" xmlns="http://www.w3.org/2000/svg">
<path d="M7.60845 19.9271C7.9078 19.0057 9.21121 19.0057 9.51057 19.9271L10.5801 23.2188H14.0413C15.0101 23.2188 15.4128 24.4585 14.6291 25.0279L11.8289 27.0623L12.8985 30.3541C13.1979 31.2754 12.1434 32.0415 11.3597 31.4721L8.55951 29.4377L5.75934 31.4721C4.97563 32.0415 3.92115 31.2754 4.2205 30.3541L5.29007 27.0623L2.4899 25.0279C1.70619 24.4585 2.10896 23.2188 3.07768 23.2188H6.53888L7.60845 19.9271Z" fill="#C29974"/>
<path d="M7.60845 2.92705C7.9078 2.00574 9.21121 2.00574 9.51057 2.92705L10.5801 6.21885H14.0413C15.0101 6.21885 15.4128 7.45846 14.6291 8.02786L11.8289 10.0623L12.8985 13.3541C13.1979 14.2754 12.1434 15.0415 11.3597 14.4721L8.55951 12.4377L5.75934 14.4721C4.97563 15.0415 3.92115 14.2754 4.2205 13.3541L5.29007 10.0623L2.4899 8.02787C1.70619 7.45846 2.10896 6.21885 3.07768 6.21885H6.53888L7.60845 2.92705Z" fill="white"/>
</svg>
